<svg width="882" height="268" viewBox="0 0 882 268" fill="none" xmlns="http://www.w3.org/2000/svg">
<path d="M405.5 267.5V249.5V226M276 205.5V126.5H231.5M276 205.5H340.75M276 205.5V236.5M231.5 126.5H186M231.5 126.5V197M186 126.5V0M186 126.5V197M499.5 249.5V220H561H588.5M499.5 249.5V267.5M499.5 249.5H449.5V226H405.5M499.5 249.5H588.5M722 0V94H672V159H630.25M276 267.5V236.5M186 267.5V236.5M722 102V184.75M722 267.5V243.75V220M588.5 267.5V249.5M588.5 220V159H630.25M588.5 220V249.5M588.5 220H630.25M186 197V137M186 197V236.5M186 197H93.25M186 197H231V236.5M722 184.75V220M722 184.75H762M882 184.75H802M405.5 226V205.5H373.125M340.75 205.5H373.125M340.75 205.5V236.5M340.75 267.5V236.5M276 236.5H231M276 236.5H340.75M186 236.5H231M0.5 197H93.25M722 220H672M722 220H762M93.25 197V267.5M802 184.75V220M802 184.75H762M802 267.5V220M630.25 159V197M630.25 197H672V220M630.25 197V220M672 220V243.75V249.5M672 220H630.25M672 267.5V255.625V249.5M588.5 249.5H630.25M373.125 205.5V236.5H340.75M630.25 220V249.5M630.25 267.5V249.5M802 220H882M802 220H762M762 184.75V220M762 220V267.5M630.25 249.5H672" stroke="url(#paint0_linear_99_23)"/>
<g opacity="0.5">
<circle cx="672" cy="158" r="6" fill="#DBEAFF"/>
<circle cx="672" cy="158" r="1" fill="#98C2FF"/>
</g>
<circle cx="231" cy="127" r="6" fill="#D3E5FF"/>
<circle cx="231" cy="127" r="1" fill="#98C2FF"/>
<circle cx="449" cy="226" r="6" fill="#D3E5FF"/>
<circle cx="449" cy="226" r="1" fill="#98C2FF"/>
<defs>
<linearGradient id="paint0_linear_99_23" x1="430" y1="19.5" x2="417.5" y2="268" gradientUnits="userSpaceOnUse">
<stop stop-color="white" stop-opacity="0"/>
<stop offset="1" stop-color="#8EBBFF"/>
</linearGradient>
</defs>
</svg>
