<svg width="310" height="240" viewBox="0 0 310 240" fill="none" xmlns="http://www.w3.org/2000/svg">
<path d="M269.54 77.2321C237.135 187.409 191.984 207.716 192.848 221.975" stroke="url(#paint0_linear_82_34)" stroke-dasharray="4 4"/>
<g filter="url(#filter0_dd_82_34)">
<rect x="246.317" y="47.226" width="40.5699" height="40.5699" rx="20.2849" transform="rotate(-15 246.317 47.226)" fill="url(#paint1_linear_82_34)"/>
<rect x="246.929" y="47.5795" width="39.5699" height="39.5699" rx="19.7849" transform="rotate(-15 246.929 47.5795)" stroke="url(#paint2_linear_82_34)"/>
</g>
<path d="M266.681 59.0069L263.56 61.6078L266.681 64.2087C266.745 64.2598 266.798 64.3231 266.837 64.3949C266.876 64.4667 266.9 64.5456 266.908 64.6269C266.916 64.7082 266.908 64.7904 266.884 64.8685C266.861 64.9467 266.821 65.0193 266.769 65.0821C266.717 65.1449 266.652 65.1966 266.58 65.2342C266.507 65.2719 266.428 65.2947 266.346 65.3013C266.265 65.3079 266.183 65.2982 266.105 65.2727C266.028 65.2473 265.956 65.2066 265.894 65.153L262.206 62.0796C262.137 62.0219 262.081 61.9497 262.043 61.8681C262.004 61.7865 261.985 61.6975 261.985 61.6074C261.985 61.5173 262.004 61.4283 262.043 61.3467C262.081 61.2651 262.137 61.1929 262.206 61.1353L265.894 58.0618C266.019 57.9574 266.181 57.9072 266.343 57.922C266.506 57.9368 266.656 58.0156 266.76 58.1409C266.864 58.2662 266.915 58.4279 266.9 58.5903C266.885 58.7527 266.806 58.9025 266.681 59.0069ZM280.204 61.1353L276.516 58.0618C276.454 58.0101 276.382 57.9712 276.305 57.9472C276.228 57.9232 276.147 57.9147 276.067 57.922C275.986 57.9294 275.908 57.9525 275.837 57.99C275.765 58.0276 275.702 58.0789 275.65 58.1409C275.546 58.2662 275.496 58.4279 275.51 58.5903C275.525 58.7527 275.604 58.9025 275.729 59.0069L278.85 61.6078L275.729 64.2087C275.665 64.2598 275.613 64.3231 275.573 64.3949C275.534 64.4667 275.51 64.5456 275.502 64.6269C275.494 64.7082 275.502 64.7904 275.526 64.8685C275.55 64.9467 275.589 65.0193 275.641 65.0821C275.694 65.1449 275.758 65.1966 275.83 65.2342C275.903 65.2719 275.982 65.2947 276.064 65.3013C276.145 65.3079 276.227 65.2982 276.305 65.2727C276.383 65.2473 276.454 65.2066 276.516 65.153L280.204 62.0796C280.274 62.0219 280.329 61.9497 280.367 61.8681C280.406 61.7865 280.425 61.6975 280.425 61.6074C280.425 61.5173 280.406 61.4283 280.367 61.3467C280.329 61.2651 280.274 61.1929 280.204 61.1353ZM273.874 54.2683C273.798 54.2408 273.717 54.2285 273.637 54.2321C273.556 54.2356 273.477 54.2551 273.404 54.2893C273.33 54.3234 273.265 54.3717 273.21 54.4312C273.156 54.4908 273.114 54.5605 273.086 54.6364L268.168 68.1597C268.141 68.2356 268.128 68.3162 268.132 68.397C268.135 68.4777 268.155 68.5569 268.189 68.6302C268.223 68.7034 268.271 68.7691 268.331 68.8237C268.391 68.8782 268.46 68.9205 268.536 68.948C268.604 68.972 268.675 68.9842 268.746 68.9841C268.872 68.9841 268.996 68.9453 269.099 68.8728C269.202 68.8004 269.281 68.6979 269.324 68.5792L274.242 55.0559C274.269 54.98 274.282 54.8995 274.278 54.8188C274.274 54.7382 274.255 54.659 274.221 54.5859C274.187 54.5128 274.138 54.4471 274.079 54.3926C274.019 54.3381 273.95 54.2959 273.874 54.2683Z" fill="#B1CFFF"/>
<g opacity="0.9">
<g filter="url(#filter1_dd_82_34)">
<rect x="239.835" y="110.043" width="37.0421" height="37.0421" rx="18.521" transform="rotate(-15 239.835 110.043)" fill="url(#paint3_linear_82_34)"/>
<rect x="240.448" y="110.396" width="36.0421" height="36.0421" rx="18.021" transform="rotate(-15 240.448 110.396)" stroke="url(#paint4_linear_82_34)"/>
</g>
<path d="M258.429 120.799L255.579 123.174L258.429 125.549C258.487 125.596 258.535 125.653 258.571 125.719C258.607 125.784 258.629 125.856 258.636 125.931C258.644 126.005 258.636 126.08 258.615 126.151C258.593 126.223 258.557 126.289 258.509 126.346C258.461 126.404 258.403 126.451 258.336 126.485C258.27 126.52 258.198 126.54 258.123 126.546C258.049 126.552 257.974 126.544 257.903 126.52C257.832 126.497 257.767 126.46 257.71 126.411L254.343 123.605C254.28 123.552 254.229 123.486 254.194 123.412C254.159 123.337 254.141 123.256 254.141 123.174C254.141 123.092 254.159 123.01 254.194 122.936C254.229 122.861 254.28 122.795 254.343 122.743L257.71 119.936C257.825 119.841 257.972 119.795 258.121 119.809C258.269 119.822 258.406 119.894 258.501 120.009C258.596 120.123 258.642 120.271 258.629 120.419C258.615 120.567 258.543 120.704 258.429 120.799ZM270.776 122.743L267.409 119.936C267.352 119.889 267.287 119.854 267.216 119.832C267.146 119.81 267.072 119.802 266.998 119.809C266.925 119.816 266.854 119.837 266.788 119.871C266.723 119.905 266.665 119.952 266.618 120.009C266.523 120.123 266.477 120.271 266.49 120.419C266.504 120.567 266.576 120.704 266.69 120.799L269.54 123.174L266.69 125.549C266.632 125.596 266.584 125.653 266.548 125.719C266.512 125.784 266.49 125.856 266.483 125.931C266.475 126.005 266.483 126.08 266.504 126.151C266.526 126.223 266.562 126.289 266.61 126.346C266.658 126.404 266.716 126.451 266.783 126.485C266.849 126.52 266.921 126.54 266.996 126.546C267.07 126.552 267.145 126.544 267.216 126.52C267.287 126.497 267.352 126.46 267.409 126.411L270.776 123.605C270.839 123.552 270.89 123.486 270.925 123.412C270.96 123.337 270.978 123.256 270.978 123.174C270.978 123.092 270.96 123.01 270.925 122.936C270.89 122.861 270.839 122.795 270.776 122.743ZM264.996 116.473C264.927 116.448 264.853 116.436 264.78 116.44C264.706 116.443 264.634 116.461 264.567 116.492C264.5 116.523 264.44 116.567 264.39 116.622C264.341 116.676 264.302 116.74 264.277 116.809L259.787 129.156C259.762 129.226 259.75 129.299 259.754 129.373C259.757 129.447 259.774 129.519 259.806 129.586C259.837 129.653 259.881 129.713 259.935 129.763C259.99 129.812 260.054 129.851 260.123 129.876C260.184 129.898 260.249 129.909 260.315 129.909C260.43 129.909 260.542 129.874 260.637 129.807C260.731 129.741 260.803 129.648 260.842 129.539L265.332 117.192C265.357 117.123 265.369 117.049 265.365 116.976C265.362 116.902 265.344 116.83 265.313 116.763C265.282 116.696 265.238 116.636 265.183 116.586C265.129 116.537 265.065 116.498 264.996 116.473Z" fill="#B1CFFF"/>
<path d="M260.899 144.203C251.69 188.489 193.065 213.657 193.929 227.916" stroke="url(#paint5_linear_82_34)" stroke-dasharray="4 4"/>
</g>
<g opacity="0.7">
<path d="M41.6245 82.0928C41.6246 186.869 146.142 202.856 147.006 217.114" stroke="url(#paint6_linear_82_34)" stroke-dasharray="4 4"/>
<g filter="url(#filter2_dd_82_34)">
<rect x="13" y="48.3673" width="44.9797" height="44.9797" rx="22.4898" transform="rotate(-15 13 48.3673)" fill="url(#paint7_linear_82_34)"/>
<rect x="13.6124" y="48.7209" width="43.9797" height="43.9797" rx="21.9898" transform="rotate(-15 13.6124 48.7209)" stroke="url(#paint8_linear_82_34)"/>
</g>
<path d="M35.5777 61.4288L32.1173 64.3124L35.5777 67.196C35.6485 67.2527 35.7072 67.3229 35.7505 67.4025C35.7938 67.4821 35.8208 67.5695 35.8299 67.6597C35.839 67.7498 35.83 67.8409 35.8035 67.9276C35.777 68.0142 35.7334 68.0947 35.6754 68.1643C35.6174 68.2339 35.5461 68.2913 35.4656 68.333C35.3852 68.3748 35.2972 68.4 35.2069 68.4074C35.1166 68.4147 35.0257 68.4039 34.9396 68.3757C34.8535 68.3475 34.7739 68.3024 34.7054 68.243L30.6162 64.8355C30.5395 64.7715 30.4778 64.6915 30.4354 64.601C30.3931 64.5105 30.3711 64.4119 30.3711 64.312C30.3711 64.2121 30.3931 64.1134 30.4354 64.023C30.4778 63.9325 30.5395 63.8525 30.6162 63.7885L34.7054 60.381C34.8443 60.2653 35.0235 60.2095 35.2036 60.226C35.3837 60.2424 35.5498 60.3297 35.6655 60.4687C35.7812 60.6076 35.8369 60.7869 35.8204 60.9669C35.804 61.147 35.7167 61.3131 35.5777 61.4288ZM50.5712 63.7885L46.4821 60.381C46.4133 60.3237 46.3339 60.2805 46.2484 60.2539C46.1629 60.2273 46.073 60.2178 45.9839 60.226C45.8947 60.2341 45.8081 60.2598 45.7288 60.3014C45.6496 60.3431 45.5793 60.3999 45.522 60.4687C45.4063 60.6076 45.3506 60.7869 45.367 60.9669C45.3835 61.147 45.4708 61.3131 45.6098 61.4288L49.0702 64.3124L45.6098 67.196C45.539 67.2527 45.4803 67.3229 45.437 67.4025C45.3937 67.4821 45.3667 67.5695 45.3576 67.6597C45.3485 67.7498 45.3575 67.8409 45.384 67.9276C45.4105 68.0142 45.4541 68.0947 45.5121 68.1643C45.5701 68.2339 45.6414 68.2913 45.7218 68.333C45.8023 68.3748 45.8902 68.4 45.9806 68.4074C46.0709 68.4147 46.1618 68.4039 46.2479 68.3757C46.334 68.3475 46.4136 68.3024 46.4821 68.243L50.5712 64.8355C50.648 64.7715 50.7097 64.6915 50.7521 64.601C50.7944 64.5105 50.8164 64.4119 50.8164 64.312C50.8164 64.2121 50.7944 64.1134 50.7521 64.023C50.7097 63.9325 50.648 63.8525 50.5712 63.7885ZM43.5524 56.1752C43.4683 56.1446 43.379 56.131 43.2895 56.135C43.2001 56.1389 43.1124 56.1605 43.0313 56.1984C42.9502 56.2363 42.8774 56.2898 42.817 56.3558C42.7566 56.4218 42.7097 56.4991 42.6792 56.5832L37.227 71.5764C37.1963 71.6606 37.1826 71.75 37.1865 71.8395C37.1904 71.929 37.2119 72.0169 37.2498 72.0981C37.2877 72.1793 37.3413 72.2522 37.4074 72.3126C37.4735 72.3731 37.5508 72.4199 37.6351 72.4505C37.7097 72.477 37.7884 72.4906 37.8676 72.4905C38.0076 72.4905 38.1442 72.4474 38.2588 72.3671C38.3734 72.2868 38.4605 72.1731 38.5083 72.0416L43.9605 57.0484C43.991 56.9642 44.0047 56.8749 44.0007 56.7855C43.9967 56.6961 43.9752 56.6084 43.9373 56.5273C43.8994 56.4462 43.8459 56.3734 43.7799 56.3129C43.7138 56.2525 43.6365 56.2057 43.5524 56.1752Z" fill="#B1CFFF"/>
</g>
<g opacity="0.45" filter="url(#filter3_f_82_34)">
<path d="M177.823 74.0422C163.751 91.3249 169.937 196.965 170.802 211.224" stroke="url(#paint9_linear_82_34)" stroke-dasharray="4 4"/>
<g filter="url(#filter4_dd_82_34)">
<rect x="160" y="51.7867" width="30.8684" height="30.8684" rx="15.4342" transform="rotate(-15 160 51.7867)" fill="url(#paint10_linear_82_34)"/>
<rect x="160.612" y="52.1403" width="29.8684" height="29.8684" rx="14.9342" transform="rotate(-15 160.612 52.1403)" stroke="url(#paint11_linear_82_34)"/>
</g>
<path d="M175.494 60.7505L173.12 62.7295L175.494 64.7085C175.543 64.7473 175.583 64.7955 175.613 64.8501C175.643 64.9048 175.661 64.9648 175.667 65.0267C175.674 65.0885 175.667 65.151 175.649 65.2105C175.631 65.27 175.601 65.3252 175.561 65.373C175.522 65.4208 175.473 65.4601 175.417 65.4888C175.362 65.5174 175.302 65.5347 175.24 65.5398C175.178 65.5448 175.115 65.5374 175.056 65.518C174.997 65.4987 174.943 65.4677 174.896 65.427L172.089 63.0885C172.037 63.0446 171.994 62.9896 171.965 62.9276C171.936 62.8655 171.921 62.7978 171.921 62.7292C171.921 62.6607 171.936 62.593 171.965 62.5309C171.994 62.4688 172.037 62.4139 172.089 62.37L174.896 60.0315C174.991 59.9521 175.114 59.9138 175.238 59.9251C175.361 59.9364 175.475 59.9963 175.555 60.0917C175.634 60.187 175.672 60.31 175.661 60.4336C175.65 60.5571 175.59 60.6712 175.494 60.7505ZM185.784 62.37L182.978 60.0315C182.931 59.9921 182.876 59.9625 182.817 59.9443C182.759 59.926 182.697 59.9195 182.636 59.9251C182.575 59.9307 182.515 59.9483 182.461 59.9769C182.406 60.0054 182.358 60.0445 182.319 60.0917C182.239 60.187 182.201 60.31 182.212 60.4336C182.224 60.5571 182.284 60.6712 182.379 60.7505L184.754 62.7295L182.379 64.7085C182.33 64.7473 182.29 64.7955 182.26 64.8501C182.231 64.9048 182.212 64.9648 182.206 65.0267C182.2 65.0885 182.206 65.151 182.224 65.2105C182.242 65.27 182.272 65.3252 182.312 65.373C182.352 65.4208 182.401 65.4601 182.456 65.4888C182.511 65.5174 182.572 65.5347 182.634 65.5398C182.696 65.5448 182.758 65.5374 182.817 65.518C182.876 65.4987 182.931 65.4677 182.978 65.427L185.784 63.0885C185.837 63.0446 185.879 62.9896 185.908 62.9276C185.937 62.8655 185.952 62.7978 185.952 62.7292C185.952 62.6607 185.937 62.593 185.908 62.5309C185.879 62.4688 185.837 62.4139 185.784 62.37ZM180.967 57.1451C180.909 57.1242 180.848 57.1148 180.787 57.1175C180.725 57.1203 180.665 57.135 180.61 57.161C180.554 57.1871 180.504 57.2238 180.462 57.2691C180.421 57.3144 180.389 57.3674 180.368 57.4252L176.626 67.7146C176.605 67.7724 176.596 67.8338 176.598 67.8952C176.601 67.9566 176.616 68.0169 176.642 68.0726C176.668 68.1283 176.705 68.1784 176.75 68.2199C176.795 68.2614 176.848 68.2935 176.906 68.3145C176.957 68.3327 177.011 68.342 177.066 68.3419C177.162 68.3419 177.256 68.3124 177.334 68.2572C177.413 68.2021 177.473 68.1241 177.505 68.0338L181.247 57.7444C181.268 57.6867 181.278 57.6254 181.275 57.564C181.272 57.5026 181.257 57.4424 181.231 57.3868C181.205 57.3311 181.169 57.2811 181.123 57.2397C181.078 57.1982 181.025 57.1661 180.967 57.1451Z" fill="#B1CFFF"/>
</g>
<g opacity="0.2" filter="url(#filter5_f_82_34)">
<path d="M236.013 54.9713C223.37 70.4992 228.928 165.413 229.705 178.224" stroke="url(#paint12_linear_82_34)" stroke-dasharray="4 4"/>
<g filter="url(#filter6_dd_82_34)">
<rect x="220" y="34.9756" width="27.7341" height="27.7341" rx="13.8671" transform="rotate(-15 220 34.9756)" fill="url(#paint13_linear_82_34)"/>
<rect x="220.612" y="35.3291" width="26.7341" height="26.7341" rx="13.3671" transform="rotate(-15 220.612 35.3291)" stroke="url(#paint14_linear_82_34)"/>
</g>
<path d="M233.921 43.0292L231.787 44.8072L233.921 46.5852C233.965 46.6202 234.001 46.6634 234.028 46.7125C234.054 46.7616 234.071 46.8155 234.077 46.8711C234.082 46.9267 234.077 46.9829 234.06 47.0363C234.044 47.0897 234.017 47.1394 233.981 47.1823C233.946 47.2252 233.902 47.2606 233.852 47.2863C233.802 47.312 233.748 47.3276 233.692 47.3321C233.637 47.3366 233.581 47.33 233.528 47.3126C233.474 47.2952 233.425 47.2674 233.383 47.2308L230.862 45.1297C230.815 45.0903 230.776 45.0409 230.75 44.9852C230.724 44.9294 230.711 44.8685 230.711 44.807C230.711 44.7454 230.724 44.6845 230.75 44.6287C230.776 44.573 230.815 44.5236 230.862 44.4842L233.383 42.3831C233.469 42.3118 233.579 42.2774 233.69 42.2876C233.801 42.2977 233.904 42.3515 233.975 42.4372C234.046 42.5229 234.081 42.6334 234.071 42.7444C234.061 42.8554 234.007 42.9579 233.921 43.0292ZM243.166 44.4842L240.645 42.3831C240.602 42.3478 240.553 42.3212 240.501 42.3048C240.448 42.2884 240.392 42.2825 240.337 42.2876C240.282 42.2926 240.229 42.3084 240.18 42.3341C240.131 42.3597 240.088 42.3948 240.053 42.4372C239.981 42.5229 239.947 42.6334 239.957 42.7444C239.967 42.8554 240.021 42.9579 240.107 43.0292L242.24 44.8072L240.107 46.5852C240.063 46.6202 240.027 46.6634 240 46.7125C239.973 46.7616 239.957 46.8155 239.951 46.8711C239.946 46.9267 239.951 46.9829 239.968 47.0363C239.984 47.0897 240.011 47.1394 240.047 47.1823C240.082 47.2252 240.126 47.2606 240.176 47.2863C240.225 47.312 240.28 47.3276 240.335 47.3321C240.391 47.3366 240.447 47.33 240.5 47.3126C240.553 47.2952 240.602 47.2674 240.645 47.2308L243.166 45.1297C243.213 45.0903 243.251 45.0409 243.277 44.9852C243.304 44.9294 243.317 44.8685 243.317 44.807C243.317 44.7454 243.304 44.6845 243.277 44.6287C243.251 44.573 243.213 44.5236 243.166 44.4842ZM238.838 39.7899C238.786 39.771 238.731 39.7626 238.676 39.7651C238.621 39.7675 238.567 39.7808 238.517 39.8042C238.467 39.8275 238.422 39.8605 238.385 39.9012C238.347 39.9419 238.319 39.9896 238.3 40.0415L234.938 49.2862C234.919 49.3381 234.911 49.3932 234.913 49.4484C234.915 49.5036 234.929 49.5577 234.952 49.6078C234.975 49.6579 235.008 49.7028 235.049 49.7401C235.09 49.7774 235.138 49.8063 235.19 49.8251C235.236 49.8415 235.284 49.8498 235.333 49.8498C235.419 49.8498 235.504 49.8232 235.574 49.7737C235.645 49.7242 235.699 49.6541 235.728 49.573L239.09 40.3283C239.109 40.2764 239.117 40.2213 239.115 40.1662C239.112 40.1111 239.099 40.057 239.076 40.007C239.052 39.957 239.019 39.9121 238.978 39.8748C238.938 39.8376 238.89 39.8087 238.838 39.7899Z" fill="#B1CFFF"/>
</g>
<g opacity="0.3" filter="url(#filter7_f_82_34)">
<path d="M90.2378 70.8875C102.377 85.796 97.04 176.924 96.2945 189.224" stroke="url(#paint15_linear_82_34)" stroke-dasharray="4 4"/>
<g filter="url(#filter8_dd_82_34)">
<rect width="26.6279" height="26.6279" rx="13.3139" transform="matrix(-0.965926 -0.258819 -0.258819 0.965926 105.612 51.6892)" fill="url(#paint16_linear_82_34)"/>
<rect x="-0.612372" y="0.353553" width="25.6279" height="25.6279" rx="12.8139" transform="matrix(-0.965926 -0.258819 -0.258819 0.965926 104.5 51.5428)" stroke="url(#paint17_linear_82_34)"/>
</g>
<path d="M92.2465 59.4217L94.2951 61.1288L92.2465 62.8359C92.2047 62.8694 92.1699 62.911 92.1442 62.9581C92.1186 63.0052 92.1026 63.057 92.0973 63.1104C92.0919 63.1637 92.0972 63.2177 92.1129 63.269C92.1286 63.3203 92.1544 63.3679 92.1887 63.4091C92.2231 63.4503 92.2653 63.4843 92.3129 63.509C92.3605 63.5337 92.4126 63.5487 92.4661 63.553C92.5195 63.5573 92.5733 63.551 92.6243 63.5343C92.6753 63.5175 92.7224 63.4908 92.763 63.4557L95.1837 61.4384C95.2292 61.4006 95.2657 61.3532 95.2908 61.2996C95.3159 61.2461 95.3289 61.1877 95.3289 61.1285C95.3289 61.0694 95.3159 61.011 95.2908 60.9574C95.2657 60.9039 95.2292 60.8565 95.1837 60.8186L92.763 58.8014C92.6807 58.7329 92.5746 58.6999 92.468 58.7096C92.3614 58.7194 92.2631 58.7711 92.1946 58.8533C92.1261 58.9356 92.0931 59.0417 92.1029 59.1483C92.1126 59.2549 92.1643 59.3532 92.2465 59.4217ZM83.3704 60.8186L85.7912 58.8014C85.8319 58.7675 85.8789 58.7419 85.9295 58.7262C85.9801 58.7104 86.0333 58.7048 86.0861 58.7096C86.1389 58.7145 86.1902 58.7296 86.2371 58.7543C86.284 58.7789 86.3256 58.8126 86.3595 58.8533C86.428 58.9356 86.461 59.0417 86.4513 59.1483C86.4415 59.2549 86.3899 59.3532 86.3076 59.4217L84.259 61.1288L86.3076 62.8359C86.3495 62.8694 86.3843 62.911 86.4099 62.9581C86.4355 63.0052 86.4515 63.057 86.4569 63.1104C86.4623 63.1637 86.4569 63.2177 86.4412 63.269C86.4255 63.3203 86.3998 63.3679 86.3654 63.4091C86.3311 63.4503 86.2889 63.4843 86.2412 63.509C86.1936 63.5337 86.1415 63.5487 86.0881 63.553C86.0346 63.5573 85.9808 63.551 85.9298 63.5343C85.8788 63.5175 85.8317 63.4908 85.7912 63.4557L83.3704 61.4384C83.325 61.4006 83.2884 61.3532 83.2634 61.2996C83.2383 61.2461 83.2253 61.1877 83.2253 61.1285C83.2253 61.0694 83.2383 61.011 83.2634 60.9574C83.2884 60.9039 83.325 60.8565 83.3704 60.8186ZM87.5255 56.3116C87.5753 56.2935 87.6282 56.2854 87.6812 56.2878C87.7341 56.2901 87.786 56.3029 87.834 56.3253C87.882 56.3477 87.9252 56.3794 87.9609 56.4185C87.9967 56.4576 88.0244 56.5033 88.0425 56.5531L91.2702 65.4291C91.2883 65.4789 91.2965 65.5318 91.2942 65.5848C91.2918 65.6378 91.2791 65.6898 91.2567 65.7379C91.2342 65.7859 91.2025 65.8291 91.1634 65.8649C91.1243 65.9007 91.0785 65.9284 91.0286 65.9465C90.9844 65.9622 90.9378 65.9702 90.8909 65.9702C90.8081 65.9702 90.7272 65.9447 90.6594 65.8972C90.5915 65.8496 90.5399 65.7823 90.5117 65.7044L87.284 56.8285C87.2659 56.7787 87.2578 56.7258 87.2601 56.6729C87.2625 56.62 87.2753 56.568 87.2977 56.52C87.3201 56.472 87.3518 56.4289 87.3909 56.3931C87.43 56.3574 87.4757 56.3297 87.5255 56.3116Z" fill="#B1CFFF"/>
</g>
<g opacity="0.9">
<g filter="url(#filter9_dd_82_34)">
<rect x="155.582" y="97.7657" width="39.6879" height="39.6879" rx="19.844" transform="rotate(-15 155.582 97.7657)" fill="url(#paint18_linear_82_34)"/>
<rect x="156.195" y="98.1193" width="38.6879" height="38.6879" rx="19.344" transform="rotate(-15 156.195 98.1193)" stroke="url(#paint19_linear_82_34)"/>
</g>
<path d="M175.504 109.291L172.45 111.835L175.504 114.379C175.566 114.429 175.618 114.491 175.656 114.561C175.694 114.632 175.718 114.709 175.726 114.788C175.734 114.868 175.726 114.948 175.703 115.025C175.68 115.101 175.641 115.172 175.59 115.234C175.539 115.295 175.476 115.346 175.405 115.383C175.334 115.419 175.256 115.442 175.177 115.448C175.097 115.455 175.017 115.445 174.941 115.42C174.865 115.395 174.794 115.355 174.734 115.303L171.126 112.296C171.058 112.24 171.004 112.169 170.966 112.09C170.929 112.01 170.91 111.923 170.91 111.835C170.91 111.746 170.929 111.659 170.966 111.58C171.004 111.5 171.058 111.429 171.126 111.373L174.734 108.366C174.857 108.264 175.015 108.215 175.174 108.229C175.333 108.244 175.479 108.321 175.581 108.443C175.683 108.566 175.732 108.724 175.718 108.883C175.703 109.042 175.626 109.188 175.504 109.291ZM188.733 111.373L185.125 108.366C185.065 108.315 184.994 108.277 184.919 108.254C184.844 108.23 184.764 108.222 184.686 108.229C184.607 108.236 184.531 108.259 184.461 108.296C184.391 108.333 184.329 108.383 184.278 108.443C184.176 108.566 184.127 108.724 184.141 108.883C184.156 109.042 184.233 109.188 184.356 109.291L187.409 111.835L184.356 114.379C184.293 114.429 184.241 114.491 184.203 114.561C184.165 114.632 184.141 114.709 184.133 114.788C184.125 114.868 184.133 114.948 184.156 115.025C184.18 115.101 184.218 115.172 184.269 115.234C184.321 115.295 184.383 115.346 184.454 115.383C184.525 115.419 184.603 115.442 184.683 115.448C184.762 115.455 184.843 115.445 184.919 115.42C184.995 115.395 185.065 115.355 185.125 115.303L188.733 112.296C188.801 112.24 188.856 112.169 188.893 112.09C188.93 112.01 188.95 111.923 188.95 111.835C188.95 111.746 188.93 111.659 188.893 111.58C188.856 111.5 188.801 111.429 188.733 111.373ZM182.54 104.655C182.466 104.628 182.387 104.616 182.308 104.619C182.229 104.623 182.152 104.642 182.08 104.675C182.009 104.709 181.945 104.756 181.891 104.814C181.838 104.873 181.797 104.941 181.77 105.015L176.959 118.244C176.932 118.319 176.92 118.397 176.923 118.476C176.927 118.555 176.946 118.633 176.979 118.705C177.013 118.776 177.06 118.841 177.118 118.894C177.176 118.947 177.245 118.989 177.319 119.016C177.385 119.039 177.454 119.051 177.524 119.051C177.648 119.051 177.768 119.013 177.869 118.942C177.971 118.871 178.047 118.771 178.09 118.655L182.9 105.425C182.927 105.351 182.939 105.272 182.936 105.194C182.932 105.115 182.913 105.037 182.88 104.966C182.846 104.894 182.799 104.83 182.741 104.777C182.683 104.723 182.614 104.682 182.54 104.655Z" fill="#B1CFFF"/>
<path d="M178.806 133.941C182.587 151.224 167.14 225.539 168.004 239.797" stroke="url(#paint20_linear_82_34)" stroke-dasharray="4 4"/>
</g>
<g opacity="0.6">
<path d="M203.111 38.3459C214.991 169.046 186.583 207.716 187.448 221.975" stroke="url(#paint21_linear_82_34)" stroke-dasharray="4 4"/>
<g filter="url(#filter10_dd_82_34)">
<rect x="180.426" y="9.81549" width="37.924" height="37.924" rx="18.962" transform="rotate(-15 180.426 9.81549)" fill="url(#paint22_linear_82_34)"/>
<rect x="181.039" y="10.169" width="36.924" height="36.924" rx="18.462" transform="rotate(-15 181.039 10.169)" stroke="url(#paint23_linear_82_34)"/>
</g>
<path d="M199.462 20.8281L196.545 23.2594L199.462 25.6907C199.522 25.7385 199.571 25.7976 199.608 25.8648C199.644 25.9319 199.667 26.0056 199.675 26.0816C199.682 26.1576 199.675 26.2344 199.653 26.3075C199.63 26.3806 199.593 26.4484 199.545 26.5071C199.496 26.5658 199.435 26.6142 199.368 26.6494C199.3 26.6845 199.226 26.7058 199.15 26.712C199.073 26.7182 198.997 26.7091 198.924 26.6853C198.852 26.6615 198.784 26.6235 198.727 26.5735L195.279 23.7004C195.214 23.6465 195.162 23.579 195.126 23.5027C195.091 23.4265 195.072 23.3433 195.072 23.2591C195.072 23.1748 195.091 23.0917 195.126 23.0154C195.162 22.9391 195.214 22.8716 195.279 22.8177L198.727 19.9447C198.844 19.8471 198.995 19.8001 199.147 19.814C199.299 19.8279 199.439 19.9015 199.536 20.0186C199.634 20.1358 199.681 20.2869 199.667 20.4387C199.653 20.5905 199.579 20.7306 199.462 20.8281ZM212.104 22.8177L208.656 19.9447C208.598 19.8964 208.531 19.86 208.459 19.8376C208.387 19.8151 208.311 19.8071 208.236 19.814C208.161 19.8209 208.088 19.8425 208.021 19.8776C207.954 19.9127 207.895 19.9606 207.847 20.0186C207.749 20.1358 207.702 20.2869 207.716 20.4387C207.73 20.5905 207.803 20.7306 207.921 20.8281L210.838 23.2594L207.921 25.6907C207.861 25.7385 207.811 25.7976 207.775 25.8648C207.738 25.9319 207.716 26.0056 207.708 26.0816C207.7 26.1576 207.708 26.2344 207.73 26.3075C207.753 26.3806 207.789 26.4484 207.838 26.5071C207.887 26.5658 207.947 26.6142 208.015 26.6494C208.083 26.6845 208.157 26.7058 208.233 26.712C208.309 26.7182 208.386 26.7091 208.459 26.6853C208.531 26.6615 208.598 26.6235 208.656 26.5735L212.104 23.7004C212.168 23.6465 212.221 23.579 212.256 23.5027C212.292 23.4265 212.31 23.3433 212.31 23.2591C212.31 23.1748 212.292 23.0917 212.256 23.0154C212.221 22.9391 212.168 22.8716 212.104 22.8177ZM206.186 16.3986C206.115 16.3729 206.04 16.3614 205.964 16.3647C205.889 16.3681 205.815 16.3862 205.747 16.4182C205.678 16.4501 205.617 16.4952 205.566 16.5509C205.515 16.6066 205.475 16.6717 205.45 16.7427L200.853 29.384C200.827 29.455 200.815 29.5304 200.819 29.6058C200.822 29.6813 200.84 29.7554 200.872 29.8238C200.904 29.8923 200.949 29.9537 201.005 30.0047C201.061 30.0557 201.126 30.0952 201.197 30.1209C201.26 30.1433 201.326 30.1547 201.393 30.1547C201.511 30.1547 201.626 30.1184 201.723 30.0506C201.819 29.9829 201.893 29.8871 201.933 29.7762L206.53 17.1348C206.556 17.0639 206.567 16.9886 206.564 16.9132C206.561 16.8378 206.542 16.7638 206.51 16.6955C206.478 16.6271 206.433 16.5657 206.378 16.5148C206.322 16.4638 206.257 16.4244 206.186 16.3986Z" fill="#B1CFFF"/>
</g>
<g opacity="0.75">
<path d="M133.23 60.4427C123.116 171.713 147.3 204.634 146.565 216.772" stroke="url(#paint24_linear_82_34)" stroke-dasharray="4 4"/>
<g filter="url(#filter11_dd_82_34)">
<rect width="32.286" height="32.286" rx="16.143" transform="matrix(-0.965926 -0.258819 -0.258819 0.965926 152.542 36.1537)" fill="url(#paint25_linear_82_34)"/>
<rect x="-0.612372" y="0.353553" width="31.286" height="31.286" rx="15.643" transform="matrix(-0.965926 -0.258819 -0.258819 0.965926 151.43 36.0072)" stroke="url(#paint26_linear_82_34)"/>
</g>
<path d="M136.336 45.5292L138.82 47.5991L136.336 49.6689C136.285 49.7096 136.243 49.7599 136.212 49.8171C136.181 49.8742 136.162 49.937 136.155 50.0017C136.149 50.0664 136.155 50.1318 136.174 50.194C136.193 50.2562 136.224 50.314 136.266 50.364C136.308 50.4139 136.359 50.4551 136.417 50.485C136.474 50.515 136.538 50.5331 136.602 50.5384C136.667 50.5437 136.732 50.5359 136.794 50.5157C136.856 50.4954 136.913 50.463 136.962 50.4204L139.898 47.9745C139.953 47.9286 139.997 47.8712 140.027 47.8062C140.058 47.7413 140.073 47.6705 140.073 47.5988C140.073 47.5271 140.058 47.4562 140.027 47.3913C139.997 47.3264 139.953 47.2689 139.898 47.223L136.962 44.7771C136.863 44.6941 136.734 44.6541 136.605 44.6659C136.476 44.6777 136.356 44.7404 136.273 44.8401C136.19 44.9398 136.15 45.0685 136.162 45.1977C136.174 45.3269 136.236 45.4462 136.336 45.5292ZM125.574 47.223L128.509 44.7771C128.559 44.736 128.616 44.705 128.677 44.6859C128.738 44.6668 128.803 44.66 128.867 44.6659C128.931 44.6717 128.993 44.6901 129.05 44.72C129.107 44.7499 129.157 44.7907 129.198 44.8401C129.281 44.9398 129.321 45.0685 129.31 45.1977C129.298 45.3269 129.235 45.4462 129.135 45.5292L126.651 47.5991L129.135 49.6689C129.186 49.7096 129.228 49.7599 129.259 49.8171C129.29 49.8742 129.31 49.937 129.316 50.0017C129.323 50.0664 129.316 50.1318 129.297 50.194C129.278 50.2562 129.247 50.314 129.205 50.364C129.164 50.4139 129.113 50.4551 129.055 50.485C128.997 50.515 128.934 50.5331 128.869 50.5384C128.804 50.5437 128.739 50.5359 128.677 50.5157C128.615 50.4954 128.558 50.463 128.509 50.4204L125.574 47.9745C125.519 47.9286 125.475 47.8712 125.444 47.8062C125.414 47.7413 125.398 47.6705 125.398 47.5988C125.398 47.5271 125.414 47.4562 125.444 47.3913C125.475 47.3264 125.519 47.2689 125.574 47.223ZM130.612 41.7582C130.672 41.7363 130.737 41.7265 130.801 41.7294C130.865 41.7322 130.928 41.7477 130.986 41.7749C131.044 41.8021 131.097 41.8405 131.14 41.8879C131.183 41.9353 131.217 41.9908 131.239 42.0511L135.152 52.8131C135.174 52.8736 135.184 52.9377 135.181 53.002C135.179 53.0662 135.163 53.1293 135.136 53.1876C135.109 53.2458 135.07 53.2982 135.023 53.3416C134.975 53.385 134.92 53.4186 134.859 53.4405C134.806 53.4596 134.749 53.4693 134.693 53.4693C134.592 53.4693 134.494 53.4383 134.412 53.3807C134.329 53.323 134.267 53.2414 134.233 53.147L130.319 42.385C130.297 42.3246 130.287 42.2605 130.29 42.1963C130.293 42.1322 130.309 42.0692 130.336 42.011C130.363 41.9528 130.401 41.9005 130.449 41.8571C130.496 41.8138 130.552 41.7802 130.612 41.7582Z" fill="#B1CFFF"/>
</g>
<g opacity="0.9">
<path d="M88.0718 145.823C97.9733 161.125 117.992 195.294 118.857 209.553" stroke="url(#paint27_linear_82_34)" stroke-dasharray="4 4"/>
<g filter="url(#filter12_dd_82_34)">
<rect x="54.0464" y="111.245" width="45.8616" height="45.8616" rx="22.9308" transform="rotate(-15 54.0464 111.245)" fill="url(#paint28_linear_82_34)"/>
<rect x="54.6588" y="111.599" width="44.8616" height="44.8616" rx="22.4308" transform="rotate(-15 54.6588 111.599)" stroke="url(#paint29_linear_82_34)"/>
</g>
<path d="M77.0665 124.563L73.5383 127.503L77.0665 130.443C77.1387 130.501 77.1986 130.573 77.2427 130.654C77.2869 130.735 77.3144 130.824 77.3237 130.916C77.3329 131.008 77.3238 131.101 77.2967 131.189C77.2697 131.278 77.2253 131.36 77.1661 131.431C77.107 131.502 77.0343 131.56 76.9523 131.603C76.8702 131.645 76.7806 131.671 76.6885 131.678C76.5964 131.686 76.5037 131.675 76.4159 131.646C76.3281 131.617 76.2469 131.571 76.1771 131.511L72.0078 128.036C71.9295 127.971 71.8666 127.89 71.8234 127.797C71.7802 127.705 71.7578 127.605 71.7578 127.503C71.7578 127.401 71.7802 127.3 71.8234 127.208C71.8666 127.116 71.9295 127.034 72.0078 126.969L76.1771 123.495C76.3188 123.377 76.5015 123.32 76.6851 123.337C76.8687 123.353 77.0381 123.442 77.156 123.584C77.274 123.726 77.3308 123.908 77.314 124.092C77.2972 124.276 77.2082 124.445 77.0665 124.563ZM92.354 126.969L88.1847 123.495C88.1146 123.436 88.0336 123.392 87.9464 123.365C87.8593 123.338 87.7676 123.328 87.6767 123.337C87.5858 123.345 87.4975 123.371 87.4167 123.414C87.3359 123.456 87.2642 123.514 87.2058 123.584C87.0879 123.726 87.031 123.908 87.0478 124.092C87.0646 124.276 87.1536 124.445 87.2953 124.563L90.8236 127.503L87.2953 130.443C87.2231 130.501 87.1632 130.573 87.1191 130.654C87.075 130.735 87.0474 130.824 87.0382 130.916C87.0289 131.008 87.038 131.101 87.0651 131.189C87.0921 131.278 87.1365 131.36 87.1957 131.431C87.2548 131.502 87.3275 131.56 87.4096 131.603C87.4916 131.645 87.5813 131.671 87.6734 131.678C87.7655 131.686 87.8581 131.675 87.9459 131.646C88.0337 131.617 88.1149 131.571 88.1847 131.511L92.354 128.036C92.4323 127.971 92.4952 127.89 92.5384 127.797C92.5816 127.705 92.604 127.605 92.604 127.503C92.604 127.401 92.5816 127.3 92.5384 127.208C92.4952 127.116 92.4323 127.034 92.354 126.969ZM85.1976 119.206C85.1118 119.175 85.0207 119.161 84.9296 119.165C84.8384 119.169 84.7489 119.191 84.6662 119.23C84.5836 119.269 84.5093 119.323 84.4477 119.391C84.3861 119.458 84.3384 119.537 84.3073 119.622L78.7482 134.91C78.7169 134.995 78.7028 135.087 78.7068 135.178C78.7108 135.269 78.7328 135.359 78.7714 135.441C78.8101 135.524 78.8646 135.599 78.932 135.66C78.9994 135.722 79.0783 135.77 79.1642 135.801C79.2404 135.828 79.3206 135.842 79.4014 135.842C79.5441 135.842 79.6833 135.798 79.8002 135.716C79.917 135.634 80.0059 135.518 80.0546 135.384L85.6136 120.097C85.6448 120.011 85.6587 119.92 85.6547 119.829C85.6506 119.738 85.6286 119.648 85.59 119.565C85.5514 119.483 85.4968 119.408 85.4295 119.347C85.3622 119.285 85.2834 119.238 85.1976 119.206Z" fill="#B1CFFF"/>
</g>
<defs>
<filter id="filter0_dd_82_34" x="232.871" y="41.2795" width="76.5798" height="76.58" filterUnits="userSpaceOnUse" color-interpolation-filters="sRGB">
<feFlood flood-opacity="0" result="BackgroundImageFix"/>
<feColorMatrix in="SourceAlpha" type="matrix" values="0 0 0 0 0 0 0 0 0 0 0 0 0 0 0 0 0 0 127 0" result="hardAlpha"/>
<feMorphology radius="1" operator="dilate" in="SourceAlpha" result="effect1_dropShadow_82_34"/>
<feOffset dy="2"/>
<feComposite in2="hardAlpha" operator="out"/>
<feColorMatrix type="matrix" values="0 0 0 0 0.698633 0 0 0 0 0.817027 0 0 0 0 1 0 0 0 1 0"/>
<feBlend mode="normal" in2="BackgroundImageFix" result="effect1_dropShadow_82_34"/>
<feColorMatrix in="SourceAlpha" type="matrix" values="0 0 0 0 0 0 0 0 0 0 0 0 0 0 0 0 0 0 127 0" result="hardAlpha"/>
<feMorphology radius="8" operator="erode" in="SourceAlpha" result="effect2_dropShadow_82_34"/>
<feOffset dy="18"/>
<feGaussianBlur stdDeviation="13"/>
<feComposite in2="hardAlpha" operator="out"/>
<feColorMatrix type="matrix" values="0 0 0 0 0.670588 0 0 0 0 0.8 0 0 0 0 1 0 0 0 1 0"/>
<feBlend mode="normal" in2="effect1_dropShadow_82_34" result="effect2_dropShadow_82_34"/>
<feBlend mode="normal" in="SourceGraphic" in2="effect2_dropShadow_82_34" result="shape"/>
</filter>
<filter id="filter1_dd_82_34" x="225.993" y="104.614" width="73.0513" height="73.0513" filterUnits="userSpaceOnUse" color-interpolation-filters="sRGB">
<feFlood flood-opacity="0" result="BackgroundImageFix"/>
<feColorMatrix in="SourceAlpha" type="matrix" values="0 0 0 0 0 0 0 0 0 0 0 0 0 0 0 0 0 0 127 0" result="hardAlpha"/>
<feMorphology radius="1" operator="dilate" in="SourceAlpha" result="effect1_dropShadow_82_34"/>
<feOffset dy="2"/>
<feComposite in2="hardAlpha" operator="out"/>
<feColorMatrix type="matrix" values="0 0 0 0 0.698633 0 0 0 0 0.817027 0 0 0 0 1 0 0 0 1 0"/>
<feBlend mode="normal" in2="BackgroundImageFix" result="effect1_dropShadow_82_34"/>
<feColorMatrix in="SourceAlpha" type="matrix" values="0 0 0 0 0 0 0 0 0 0 0 0 0 0 0 0 0 0 127 0" result="hardAlpha"/>
<feMorphology radius="8" operator="erode" in="SourceAlpha" result="effect2_dropShadow_82_34"/>
<feOffset dy="18"/>
<feGaussianBlur stdDeviation="13"/>
<feComposite in2="hardAlpha" operator="out"/>
<feColorMatrix type="matrix" values="0 0 0 0 0.670588 0 0 0 0 0.8 0 0 0 0 1 0 0 0 1 0"/>
<feBlend mode="normal" in2="effect1_dropShadow_82_34" result="effect2_dropShadow_82_34"/>
<feBlend mode="normal" in="SourceGraphic" in2="effect2_dropShadow_82_34" result="shape"/>
</filter>
<filter id="filter2_dd_82_34" x="0.0488281" y="41.7747" width="80.991" height="80.9907" filterUnits="userSpaceOnUse" color-interpolation-filters="sRGB">
<feFlood flood-opacity="0" result="BackgroundImageFix"/>
<feColorMatrix in="SourceAlpha" type="matrix" values="0 0 0 0 0 0 0 0 0 0 0 0 0 0 0 0 0 0 127 0" result="hardAlpha"/>
<feMorphology radius="1" operator="dilate" in="SourceAlpha" result="effect1_dropShadow_82_34"/>
<feOffset dy="2"/>
<feComposite in2="hardAlpha" operator="out"/>
<feColorMatrix type="matrix" values="0 0 0 0 0.698633 0 0 0 0 0.817027 0 0 0 0 1 0 0 0 1 0"/>
<feBlend mode="normal" in2="BackgroundImageFix" result="effect1_dropShadow_82_34"/>
<feColorMatrix in="SourceAlpha" type="matrix" values="0 0 0 0 0 0 0 0 0 0 0 0 0 0 0 0 0 0 127 0" result="hardAlpha"/>
<feMorphology radius="8" operator="erode" in="SourceAlpha" result="effect2_dropShadow_82_34"/>
<feOffset dy="18"/>
<feGaussianBlur stdDeviation="13"/>
<feComposite in2="hardAlpha" operator="out"/>
<feColorMatrix type="matrix" values="0 0 0 0 0.670588 0 0 0 0 0.8 0 0 0 0 1 0 0 0 1 0"/>
<feBlend mode="normal" in2="effect1_dropShadow_82_34" result="effect2_dropShadow_82_34"/>
<feBlend mode="normal" in="SourceGraphic" in2="effect2_dropShadow_82_34" result="shape"/>
</filter>
<filter id="filter3_f_82_34" x="159.465" y="43.2623" width="38.8762" height="171.992" filterUnits="userSpaceOnUse" color-interpolation-filters="sRGB">
<feFlood flood-opacity="0" result="BackgroundImageFix"/>
<feBlend mode="normal" in="SourceGraphic" in2="BackgroundImageFix" result="shape"/>
<feGaussianBlur stdDeviation="2" result="effect1_foregroundBlur_82_34"/>
</filter>
<filter id="filter4_dd_82_34" x="145.465" y="47.2623" width="66.8762" height="66.8761" filterUnits="userSpaceOnUse" color-interpolation-filters="sRGB">
<feFlood flood-opacity="0" result="BackgroundImageFix"/>
<feColorMatrix in="SourceAlpha" type="matrix" values="0 0 0 0 0 0 0 0 0 0 0 0 0 0 0 0 0 0 127 0" result="hardAlpha"/>
<feMorphology radius="1" operator="dilate" in="SourceAlpha" result="effect1_dropShadow_82_34"/>
<feOffset dy="2"/>
<feComposite in2="hardAlpha" operator="out"/>
<feColorMatrix type="matrix" values="0 0 0 0 0.698633 0 0 0 0 0.817027 0 0 0 0 1 0 0 0 1 0"/>
<feBlend mode="normal" in2="BackgroundImageFix" result="effect1_dropShadow_82_34"/>
<feColorMatrix in="SourceAlpha" type="matrix" values="0 0 0 0 0 0 0 0 0 0 0 0 0 0 0 0 0 0 127 0" result="hardAlpha"/>
<feMorphology radius="8" operator="erode" in="SourceAlpha" result="effect2_dropShadow_82_34"/>
<feOffset dy="18"/>
<feGaussianBlur stdDeviation="13"/>
<feComposite in2="hardAlpha" operator="out"/>
<feColorMatrix type="matrix" values="0 0 0 0 0.670588 0 0 0 0 0.8 0 0 0 0 1 0 0 0 1 0"/>
<feBlend mode="normal" in2="effect1_dropShadow_82_34" result="effect2_dropShadow_82_34"/>
<feBlend mode="normal" in="SourceGraphic" in2="effect2_dropShadow_82_34" result="shape"/>
</filter>
<filter id="filter5_f_82_34" x="219.113" y="26.9105" width="35.741" height="155.343" filterUnits="userSpaceOnUse" color-interpolation-filters="sRGB">
<feFlood flood-opacity="0" result="BackgroundImageFix"/>
<feBlend mode="normal" in="SourceGraphic" in2="BackgroundImageFix" result="shape"/>
<feGaussianBlur stdDeviation="2" result="effect1_foregroundBlur_82_34"/>
</filter>
<filter id="filter6_dd_82_34" x="205.113" y="30.9105" width="63.741" height="63.7411" filterUnits="userSpaceOnUse" color-interpolation-filters="sRGB">
<feFlood flood-opacity="0" result="BackgroundImageFix"/>
<feColorMatrix in="SourceAlpha" type="matrix" values="0 0 0 0 0 0 0 0 0 0 0 0 0 0 0 0 0 0 127 0" result="hardAlpha"/>
<feMorphology radius="1" operator="dilate" in="SourceAlpha" result="effect1_dropShadow_82_34"/>
<feOffset dy="2"/>
<feComposite in2="hardAlpha" operator="out"/>
<feColorMatrix type="matrix" values="0 0 0 0 0.698633 0 0 0 0 0.817027 0 0 0 0 1 0 0 0 1 0"/>
<feBlend mode="normal" in2="BackgroundImageFix" result="effect1_dropShadow_82_34"/>
<feColorMatrix in="SourceAlpha" type="matrix" values="0 0 0 0 0 0 0 0 0 0 0 0 0 0 0 0 0 0 127 0" result="hardAlpha"/>
<feMorphology radius="8" operator="erode" in="SourceAlpha" result="effect2_dropShadow_82_34"/>
<feOffset dy="18"/>
<feGaussianBlur stdDeviation="13"/>
<feComposite in2="hardAlpha" operator="out"/>
<feColorMatrix type="matrix" values="0 0 0 0 0.670588 0 0 0 0 0.8 0 0 0 0 1 0 0 0 1 0"/>
<feBlend mode="normal" in2="effect1_dropShadow_82_34" result="effect2_dropShadow_82_34"/>
<feBlend mode="normal" in="SourceGraphic" in2="effect2_dropShadow_82_34" result="shape"/>
</filter>
<filter id="filter7_f_82_34" x="71.9888" y="43.7864" width="34.6345" height="149.468" filterUnits="userSpaceOnUse" color-interpolation-filters="sRGB">
<feFlood flood-opacity="0" result="BackgroundImageFix"/>
<feBlend mode="normal" in="SourceGraphic" in2="BackgroundImageFix" result="shape"/>
<feGaussianBlur stdDeviation="2" result="effect1_foregroundBlur_82_34"/>
</filter>
<filter id="filter8_dd_82_34" x="57.9888" y="47.7864" width="62.6345" height="62.6344" filterUnits="userSpaceOnUse" color-interpolation-filters="sRGB">
<feFlood flood-opacity="0" result="BackgroundImageFix"/>
<feColorMatrix in="SourceAlpha" type="matrix" values="0 0 0 0 0 0 0 0 0 0 0 0 0 0 0 0 0 0 127 0" result="hardAlpha"/>
<feMorphology radius="1" operator="dilate" in="SourceAlpha" result="effect1_dropShadow_82_34"/>
<feOffset dy="2"/>
<feComposite in2="hardAlpha" operator="out"/>
<feColorMatrix type="matrix" values="0 0 0 0 0.698633 0 0 0 0 0.817027 0 0 0 0 1 0 0 0 1 0"/>
<feBlend mode="normal" in2="BackgroundImageFix" result="effect1_dropShadow_82_34"/>
<feColorMatrix in="SourceAlpha" type="matrix" values="0 0 0 0 0 0 0 0 0 0 0 0 0 0 0 0 0 0 127 0" result="hardAlpha"/>
<feMorphology radius="8" operator="erode" in="SourceAlpha" result="effect2_dropShadow_82_34"/>
<feOffset dy="18"/>
<feGaussianBlur stdDeviation="13"/>
<feComposite in2="hardAlpha" operator="out"/>
<feColorMatrix type="matrix" values="0 0 0 0 0.670588 0 0 0 0 0.8 0 0 0 0 1 0 0 0 1 0"/>
<feBlend mode="normal" in2="effect1_dropShadow_82_34" result="effect2_dropShadow_82_34"/>
<feBlend mode="normal" in="SourceGraphic" in2="effect2_dropShadow_82_34" result="shape"/>
</filter>
<filter id="filter9_dd_82_34" x="142.037" y="91.9486" width="75.6978" height="75.6979" filterUnits="userSpaceOnUse" color-interpolation-filters="sRGB">
<feFlood flood-opacity="0" result="BackgroundImageFix"/>
<feColorMatrix in="SourceAlpha" type="matrix" values="0 0 0 0 0 0 0 0 0 0 0 0 0 0 0 0 0 0 127 0" result="hardAlpha"/>
<feMorphology radius="1" operator="dilate" in="SourceAlpha" result="effect1_dropShadow_82_34"/>
<feOffset dy="2"/>
<feComposite in2="hardAlpha" operator="out"/>
<feColorMatrix type="matrix" values="0 0 0 0 0.698633 0 0 0 0 0.817027 0 0 0 0 1 0 0 0 1 0"/>
<feBlend mode="normal" in2="BackgroundImageFix" result="effect1_dropShadow_82_34"/>
<feColorMatrix in="SourceAlpha" type="matrix" values="0 0 0 0 0 0 0 0 0 0 0 0 0 0 0 0 0 0 127 0" result="hardAlpha"/>
<feMorphology radius="8" operator="erode" in="SourceAlpha" result="effect2_dropShadow_82_34"/>
<feOffset dy="18"/>
<feGaussianBlur stdDeviation="13"/>
<feComposite in2="hardAlpha" operator="out"/>
<feColorMatrix type="matrix" values="0 0 0 0 0.670588 0 0 0 0 0.8 0 0 0 0 1 0 0 0 1 0"/>
<feBlend mode="normal" in2="effect1_dropShadow_82_34" result="effect2_dropShadow_82_34"/>
<feBlend mode="normal" in="SourceGraphic" in2="effect2_dropShadow_82_34" result="shape"/>
</filter>
<filter id="filter10_dd_82_34" x="166.683" y="4.25696" width="73.9336" height="73.9335" filterUnits="userSpaceOnUse" color-interpolation-filters="sRGB">
<feFlood flood-opacity="0" result="BackgroundImageFix"/>
<feColorMatrix in="SourceAlpha" type="matrix" values="0 0 0 0 0 0 0 0 0 0 0 0 0 0 0 0 0 0 127 0" result="hardAlpha"/>
<feMorphology radius="1" operator="dilate" in="SourceAlpha" result="effect1_dropShadow_82_34"/>
<feOffset dy="2"/>
<feComposite in2="hardAlpha" operator="out"/>
<feColorMatrix type="matrix" values="0 0 0 0 0.698633 0 0 0 0 0.817027 0 0 0 0 1 0 0 0 1 0"/>
<feBlend mode="normal" in2="BackgroundImageFix" result="effect1_dropShadow_82_34"/>
<feColorMatrix in="SourceAlpha" type="matrix" values="0 0 0 0 0 0 0 0 0 0 0 0 0 0 0 0 0 0 127 0" result="hardAlpha"/>
<feMorphology radius="8" operator="erode" in="SourceAlpha" result="effect2_dropShadow_82_34"/>
<feOffset dy="18"/>
<feGaussianBlur stdDeviation="13"/>
<feComposite in2="hardAlpha" operator="out"/>
<feColorMatrix type="matrix" values="0 0 0 0 0.670588 0 0 0 0 0.8 0 0 0 0 1 0 0 0 1 0"/>
<feBlend mode="normal" in2="effect1_dropShadow_82_34" result="effect2_dropShadow_82_34"/>
<feBlend mode="normal" in="SourceGraphic" in2="effect2_dropShadow_82_34" result="shape"/>
</filter>
<filter id="filter11_dd_82_34" x="98.624" y="31.4215" width="68.2942" height="68.2941" filterUnits="userSpaceOnUse" color-interpolation-filters="sRGB">
<feFlood flood-opacity="0" result="BackgroundImageFix"/>
<feColorMatrix in="SourceAlpha" type="matrix" values="0 0 0 0 0 0 0 0 0 0 0 0 0 0 0 0 0 0 127 0" result="hardAlpha"/>
<feMorphology radius="1" operator="dilate" in="SourceAlpha" result="effect1_dropShadow_82_34"/>
<feOffset dy="2"/>
<feComposite in2="hardAlpha" operator="out"/>
<feColorMatrix type="matrix" values="0 0 0 0 0.698633 0 0 0 0 0.817027 0 0 0 0 1 0 0 0 1 0"/>
<feBlend mode="normal" in2="BackgroundImageFix" result="effect1_dropShadow_82_34"/>
<feColorMatrix in="SourceAlpha" type="matrix" values="0 0 0 0 0 0 0 0 0 0 0 0 0 0 0 0 0 0 127 0" result="hardAlpha"/>
<feMorphology radius="8" operator="erode" in="SourceAlpha" result="effect2_dropShadow_82_34"/>
<feOffset dy="18"/>
<feGaussianBlur stdDeviation="13"/>
<feComposite in2="hardAlpha" operator="out"/>
<feColorMatrix type="matrix" values="0 0 0 0 0.670588 0 0 0 0 0.8 0 0 0 0 1 0 0 0 1 0"/>
<feBlend mode="normal" in2="effect1_dropShadow_82_34" result="effect2_dropShadow_82_34"/>
<feBlend mode="normal" in="SourceGraphic" in2="effect2_dropShadow_82_34" result="shape"/>
</filter>
<filter id="filter12_dd_82_34" x="41.1943" y="104.523" width="81.873" height="81.8729" filterUnits="userSpaceOnUse" color-interpolation-filters="sRGB">
<feFlood flood-opacity="0" result="BackgroundImageFix"/>
<feColorMatrix in="SourceAlpha" type="matrix" values="0 0 0 0 0 0 0 0 0 0 0 0 0 0 0 0 0 0 127 0" result="hardAlpha"/>
<feMorphology radius="1" operator="dilate" in="SourceAlpha" result="effect1_dropShadow_82_34"/>
<feOffset dy="2"/>
<feComposite in2="hardAlpha" operator="out"/>
<feColorMatrix type="matrix" values="0 0 0 0 0.698633 0 0 0 0 0.817027 0 0 0 0 1 0 0 0 1 0"/>
<feBlend mode="normal" in2="BackgroundImageFix" result="effect1_dropShadow_82_34"/>
<feColorMatrix in="SourceAlpha" type="matrix" values="0 0 0 0 0 0 0 0 0 0 0 0 0 0 0 0 0 0 127 0" result="hardAlpha"/>
<feMorphology radius="8" operator="erode" in="SourceAlpha" result="effect2_dropShadow_82_34"/>
<feOffset dy="18"/>
<feGaussianBlur stdDeviation="13"/>
<feComposite in2="hardAlpha" operator="out"/>
<feColorMatrix type="matrix" values="0 0 0 0 0.670588 0 0 0 0 0.8 0 0 0 0 1 0 0 0 1 0"/>
<feBlend mode="normal" in2="effect1_dropShadow_82_34" result="effect2_dropShadow_82_34"/>
<feBlend mode="normal" in="SourceGraphic" in2="effect2_dropShadow_82_34" result="shape"/>
</filter>
<linearGradient id="paint0_linear_82_34" x1="265.759" y1="185.789" x2="255.498" y2="245.198" gradientUnits="userSpaceOnUse">
<stop stop-color="#B0CFFF"/>
<stop offset="1" stop-color="white" stop-opacity="0"/>
</linearGradient>
<linearGradient id="paint1_linear_82_34" x1="258.384" y1="56.3482" x2="234.605" y2="28.92" gradientUnits="userSpaceOnUse">
<stop stop-color="#FBFBFB"/>
<stop offset="1" stop-color="#E8EFFF"/>
</linearGradient>
<linearGradient id="paint2_linear_82_34" x1="266.602" y1="47.226" x2="266.602" y2="87.7958" gradientUnits="userSpaceOnUse">
<stop stop-color="white" stop-opacity="0"/>
<stop offset="1" stop-color="#71AAFF" stop-opacity="0.8"/>
</linearGradient>
<linearGradient id="paint3_linear_82_34" x1="250.853" y1="118.372" x2="229.143" y2="93.3287" gradientUnits="userSpaceOnUse">
<stop stop-color="#FBFBFB"/>
<stop offset="1" stop-color="#E8EFFF"/>
</linearGradient>
<linearGradient id="paint4_linear_82_34" x1="258.356" y1="110.043" x2="258.356" y2="147.085" gradientUnits="userSpaceOnUse">
<stop stop-color="white" stop-opacity="0"/>
<stop offset="1" stop-color="#71AAFF" stop-opacity="0.8"/>
</linearGradient>
<linearGradient id="paint5_linear_82_34" x1="270.106" y1="158.245" x2="285.228" y2="202.532" gradientUnits="userSpaceOnUse">
<stop stop-color="#B0CFFF"/>
<stop offset="1" stop-color="white" stop-opacity="0"/>
</linearGradient>
<linearGradient id="paint6_linear_82_34" x1="49.6604" y1="162.025" x2="49.6604" y2="214.954" gradientUnits="userSpaceOnUse">
<stop stop-color="#B0CFFF"/>
<stop offset="1" stop-color="white" stop-opacity="0"/>
</linearGradient>
<linearGradient id="paint7_linear_82_34" x1="26.379" y1="58.4811" x2="0.0158794" y2="28.0716" gradientUnits="userSpaceOnUse">
<stop stop-color="#FBFBFB"/>
<stop offset="1" stop-color="#E8EFFF"/>
</linearGradient>
<linearGradient id="paint8_linear_82_34" x1="35.4898" y1="48.3673" x2="35.4898" y2="93.347" gradientUnits="userSpaceOnUse">
<stop stop-color="white" stop-opacity="0"/>
<stop offset="1" stop-color="#71AAFF" stop-opacity="0.8"/>
</linearGradient>
<linearGradient id="paint9_linear_82_34" x1="168.641" y1="158.295" x2="168.641" y2="211.224" gradientUnits="userSpaceOnUse">
<stop stop-color="#B0CFFF"/>
<stop offset="1" stop-color="white" stop-opacity="0"/>
</linearGradient>
<linearGradient id="paint10_linear_82_34" x1="169.182" y1="58.7276" x2="151.089" y2="37.8583" gradientUnits="userSpaceOnUse">
<stop stop-color="#FBFBFB"/>
<stop offset="1" stop-color="#E8EFFF"/>
</linearGradient>
<linearGradient id="paint11_linear_82_34" x1="175.434" y1="51.7867" x2="175.434" y2="82.6551" gradientUnits="userSpaceOnUse">
<stop stop-color="white" stop-opacity="0"/>
<stop offset="1" stop-color="#71AAFF" stop-opacity="0.8"/>
</linearGradient>
<linearGradient id="paint12_linear_82_34" x1="227.764" y1="130.67" x2="227.764" y2="178.224" gradientUnits="userSpaceOnUse">
<stop stop-color="#B0CFFF"/>
<stop offset="1" stop-color="white" stop-opacity="0"/>
</linearGradient>
<linearGradient id="paint13_linear_82_34" x1="228.249" y1="41.2117" x2="211.994" y2="22.4614" gradientUnits="userSpaceOnUse">
<stop stop-color="#FBFBFB"/>
<stop offset="1" stop-color="#E8EFFF"/>
</linearGradient>
<linearGradient id="paint14_linear_82_34" x1="233.867" y1="34.9756" x2="233.867" y2="62.7097" gradientUnits="userSpaceOnUse">
<stop stop-color="white" stop-opacity="0"/>
<stop offset="1" stop-color="#71AAFF" stop-opacity="0.8"/>
</linearGradient>
<linearGradient id="paint15_linear_82_34" x1="98.158" y1="143.566" x2="98.158" y2="189.224" gradientUnits="userSpaceOnUse">
<stop stop-color="#B0CFFF"/>
<stop offset="1" stop-color="white" stop-opacity="0"/>
</linearGradient>
<linearGradient id="paint16_linear_82_34" x1="7.92037" y1="5.98733" x2="-7.68658" y2="-12.015" gradientUnits="userSpaceOnUse">
<stop stop-color="#FBFBFB"/>
<stop offset="1" stop-color="#E8EFFF"/>
</linearGradient>
<linearGradient id="paint17_linear_82_34" x1="13.3139" y1="0" x2="13.3139" y2="26.6279" gradientUnits="userSpaceOnUse">
<stop stop-color="white" stop-opacity="0"/>
<stop offset="1" stop-color="#71AAFF" stop-opacity="0.8"/>
</linearGradient>
<linearGradient id="paint18_linear_82_34" x1="167.387" y1="106.69" x2="144.126" y2="79.8578" gradientUnits="userSpaceOnUse">
<stop stop-color="#FBFBFB"/>
<stop offset="1" stop-color="#E8EFFF"/>
</linearGradient>
<linearGradient id="paint19_linear_82_34" x1="175.426" y1="97.7657" x2="175.426" y2="137.454" gradientUnits="userSpaceOnUse">
<stop stop-color="white" stop-opacity="0"/>
<stop offset="1" stop-color="#71AAFF" stop-opacity="0.8"/>
</linearGradient>
<linearGradient id="paint20_linear_82_34" x1="190.688" y1="149.063" x2="205.81" y2="193.35" gradientUnits="userSpaceOnUse">
<stop stop-color="#B0CFFF"/>
<stop offset="1" stop-color="white" stop-opacity="0"/>
</linearGradient>
<linearGradient id="paint21_linear_82_34" x1="199.869" y1="149.063" x2="189.608" y2="208.473" gradientUnits="userSpaceOnUse">
<stop stop-color="#B0CFFF"/>
<stop offset="1" stop-color="white" stop-opacity="0"/>
</linearGradient>
<linearGradient id="paint22_linear_82_34" x1="191.707" y1="18.3428" x2="169.479" y2="-7.29657" gradientUnits="userSpaceOnUse">
<stop stop-color="#FBFBFB"/>
<stop offset="1" stop-color="#E8EFFF"/>
</linearGradient>
<linearGradient id="paint23_linear_82_34" x1="199.388" y1="9.81549" x2="199.388" y2="47.7395" gradientUnits="userSpaceOnUse">
<stop stop-color="white" stop-opacity="0"/>
<stop offset="1" stop-color="#71AAFF" stop-opacity="0.8"/>
</linearGradient>
<linearGradient id="paint24_linear_82_34" x1="135.99" y1="154.7" x2="144.726" y2="205.277" gradientUnits="userSpaceOnUse">
<stop stop-color="#B0CFFF"/>
<stop offset="1" stop-color="white" stop-opacity="0"/>
</linearGradient>
<linearGradient id="paint25_linear_82_34" x1="9.60336" y1="7.25958" x2="-9.3199" y2="-14.5681" gradientUnits="userSpaceOnUse">
<stop stop-color="#FBFBFB"/>
<stop offset="1" stop-color="#E8EFFF"/>
</linearGradient>
<linearGradient id="paint26_linear_82_34" x1="16.143" y1="0" x2="16.143" y2="32.286" gradientUnits="userSpaceOnUse">
<stop stop-color="white" stop-opacity="0"/>
<stop offset="1" stop-color="#71AAFF" stop-opacity="0.8"/>
</linearGradient>
<linearGradient id="paint27_linear_82_34" x1="103.734" y1="165.266" x2="118.857" y2="209.553" gradientUnits="userSpaceOnUse">
<stop stop-color="#B0CFFF"/>
<stop offset="1" stop-color="white" stop-opacity="0"/>
</linearGradient>
<linearGradient id="paint28_linear_82_34" x1="67.6878" y1="121.557" x2="40.8077" y2="90.5517" gradientUnits="userSpaceOnUse">
<stop stop-color="#FBFBFB"/>
<stop offset="1" stop-color="#E8EFFF"/>
</linearGradient>
<linearGradient id="paint29_linear_82_34" x1="76.9772" y1="111.245" x2="76.9772" y2="157.107" gradientUnits="userSpaceOnUse">
<stop stop-color="white" stop-opacity="0"/>
<stop offset="1" stop-color="#71AAFF" stop-opacity="0.8"/>
</linearGradient>
</defs>
</svg>
